<svg xmlns="http://www.w3.org/2000/svg" width="128" height="128" viewBox="0 0 128 128">
<defs>
<linearGradient id="BG" x1="0" y1="0" x2="1" y2="1"><stop offset="0%" stop-color="#0b0c16"/><stop offset="100%" stop-color="#06080f"/></linearGradient>
<linearGradient id="HX" x1="0" y1="0" x2="1" y2="1"><stop offset="0%" stop-color="#818cf8"/><stop offset="100%" stop-color="#38bdf8"/></linearGradient>
<linearGradient id="NC" x1="0" y1="0" x2="1" y2="1"><stop offset="0%" stop-color="#a5b4fc"/><stop offset="100%" stop-color="#7dd3fc"/></linearGradient>
</defs>
<rect width="128" height="128" rx="29.32" fill="url(#BG)"/>
<path d="M 109.35 59.4 Q 112.0 64.0 109.35 68.6 L 90.65 100.97 Q 88.0 105.58 82.67 105.58 L 45.33 105.58 Q 40.0 105.58 37.35 100.97 L 18.65 68.6 Q 16.0 64.0 18.65 59.4 L 37.35 27.02 Q 40.0 22.43 45.33 22.43 L 82.67 22.43 Q 88.0 22.43 90.65 27.02 Z" fill="#818cf808" stroke="url(#HX)" stroke-width="2.0"/>
<ellipse cx="64.0" cy="64.0" rx="37.33" ry="13.32" fill="none" stroke="#38bdf8" stroke-width="2.0" opacity="0.60" transform="rotate(35 64.0 64.0)"/>
<ellipse cx="64.0" cy="64.0" rx="37.33" ry="13.32" fill="none" stroke="#818cf8" stroke-width="2.67" opacity="0.90" transform="rotate(-35 64.0 64.0)"/>
<circle cx="56.35" cy="53.08" r="4.0" fill="#818cf8"/>
<circle cx="94.58" cy="85.4" r="3.33" fill="#38bdf8" opacity="0.85"/>
<circle cx="64.0" cy="64.0" r="12.0" fill="#818cf8" opacity="0.12"/>
<circle cx="64.0" cy="64.0" r="7.33" fill="url(#BG)"/>
<circle cx="64.0" cy="64.0" r="5.33" fill="url(#NC)"/>
</svg>