<svg xmlns="http://www.w3.org/2000/svg" width="16" height="16" viewBox="0 0 16 16">
<defs>
<linearGradient id="BG" x1="0" y1="0" x2="1" y2="1"><stop offset="0%" stop-color="#0b0c16"/><stop offset="100%" stop-color="#06080f"/></linearGradient>
<linearGradient id="HX" x1="0" y1="0" x2="1" y2="1"><stop offset="0%" stop-color="#818cf8"/><stop offset="100%" stop-color="#38bdf8"/></linearGradient>
<linearGradient id="NC" x1="0" y1="0" x2="1" y2="1"><stop offset="0%" stop-color="#a5b4fc"/><stop offset="100%" stop-color="#7dd3fc"/></linearGradient>
</defs>
<rect width="16" height="16" rx="3.67" fill="url(#BG)"/>
<path d="M 13.67 7.42 Q 14.0 8.0 13.67 8.57 L 11.33 12.62 Q 11.0 13.2 10.33 13.2 L 5.67 13.2 Q 5.0 13.2 4.67 12.62 L 2.33 8.57 Q 2.0 8.0 2.33 7.42 L 4.67 3.38 Q 5.0 2.8 5.67 2.8 L 10.33 2.8 Q 11.0 2.8 11.33 3.38 Z" fill="#818cf808" stroke="url(#HX)" stroke-width="0.5"/>
<ellipse cx="8.0" cy="8.0" rx="4.67" ry="1.67" fill="none" stroke="#38bdf8" stroke-width="0.5" opacity="0.60" transform="rotate(35 8.0 8.0)"/>
<ellipse cx="8.0" cy="8.0" rx="4.67" ry="1.67" fill="none" stroke="#818cf8" stroke-width="0.5" opacity="0.90" transform="rotate(-35 8.0 8.0)"/>
<circle cx="7.04" cy="6.63" r="1" fill="#818cf8"/>
<circle cx="11.82" cy="10.68" r="1" fill="#38bdf8" opacity="0.85"/>
<circle cx="8.0" cy="8.0" r="1.5" fill="#818cf8" opacity="0.12"/>
<circle cx="8.0" cy="8.0" r="0.92" fill="url(#BG)"/>
<circle cx="8.0" cy="8.0" r="0.67" fill="url(#NC)"/>
</svg>