<svg xmlns="http://www.w3.org/2000/svg" width="72" height="72" viewBox="0 0 72 72">
<defs>
<linearGradient id="BG" x1="0" y1="0" x2="1" y2="1"><stop offset="0%" stop-color="#0b0c16"/><stop offset="100%" stop-color="#06080f"/></linearGradient>
<linearGradient id="HX" x1="0" y1="0" x2="1" y2="1"><stop offset="0%" stop-color="#818cf8"/><stop offset="100%" stop-color="#38bdf8"/></linearGradient>
<linearGradient id="NC" x1="0" y1="0" x2="1" y2="1"><stop offset="0%" stop-color="#a5b4fc"/><stop offset="100%" stop-color="#7dd3fc"/></linearGradient>
</defs>
<rect width="72" height="72" rx="16.5" fill="url(#BG)"/>
<path d="M 61.51 33.41 Q 63.0 36.0 61.51 38.59 L 50.99 56.8 Q 49.5 59.39 46.5 59.39 L 25.5 59.39 Q 22.5 59.39 21.01 56.8 L 10.49 38.59 Q 9.0 36.0 10.49 33.41 L 21.01 15.2 Q 22.5 12.61 25.5 12.61 L 46.5 12.61 Q 49.5 12.61 50.99 15.2 Z" fill="#818cf808" stroke="url(#HX)" stroke-width="1.12"/>
<ellipse cx="36.0" cy="36.0" rx="21.0" ry="7.5" fill="none" stroke="#38bdf8" stroke-width="1.12" opacity="0.60" transform="rotate(35 36.0 36.0)"/>
<ellipse cx="36.0" cy="36.0" rx="21.0" ry="7.5" fill="none" stroke="#818cf8" stroke-width="1.5" opacity="0.90" transform="rotate(-35 36.0 36.0)"/>
<circle cx="31.7" cy="29.85" r="2.25" fill="#818cf8"/>
<circle cx="53.2" cy="48.04" r="1.87" fill="#38bdf8" opacity="0.85"/>
<circle cx="36.0" cy="36.0" r="6.75" fill="#818cf8" opacity="0.12"/>
<circle cx="36.0" cy="36.0" r="4.12" fill="url(#BG)"/>
<circle cx="36.0" cy="36.0" r="3.0" fill="url(#NC)"/>
</svg>