<svg xmlns="http://www.w3.org/2000/svg" width="48" height="48" viewBox="0 0 48 48">
<defs>
<linearGradient id="BG" x1="0" y1="0" x2="1" y2="1"><stop offset="0%" stop-color="#0b0c16"/><stop offset="100%" stop-color="#06080f"/></linearGradient>
<linearGradient id="HX" x1="0" y1="0" x2="1" y2="1"><stop offset="0%" stop-color="#818cf8"/><stop offset="100%" stop-color="#38bdf8"/></linearGradient>
<linearGradient id="NC" x1="0" y1="0" x2="1" y2="1"><stop offset="0%" stop-color="#a5b4fc"/><stop offset="100%" stop-color="#7dd3fc"/></linearGradient>
</defs>
<rect width="48" height="48" rx="11.0" fill="url(#BG)"/>
<path d="M 41.01 22.27 Q 42.0 24.0 41.01 25.72 L 33.99 37.87 Q 33.0 39.59 31.0 39.59 L 17.0 39.59 Q 15.0 39.59 14.01 37.87 L 6.99 25.72 Q 6.0 24.0 6.99 22.27 L 14.01 10.13 Q 15.0 8.41 17.0 8.41 L 31.0 8.41 Q 33.0 8.41 33.99 10.13 Z" fill="#818cf808" stroke="url(#HX)" stroke-width="0.75"/>
<ellipse cx="24.0" cy="24.0" rx="14.0" ry="5.0" fill="none" stroke="#38bdf8" stroke-width="0.75" opacity="0.60" transform="rotate(35 24.0 24.0)"/>
<ellipse cx="24.0" cy="24.0" rx="14.0" ry="5.0" fill="none" stroke="#818cf8" stroke-width="1.0" opacity="0.90" transform="rotate(-35 24.0 24.0)"/>
<circle cx="21.13" cy="19.9" r="1.5" fill="#818cf8"/>
<circle cx="35.47" cy="32.03" r="1.25" fill="#38bdf8" opacity="0.85"/>
<circle cx="24.0" cy="24.0" r="4.5" fill="#818cf8" opacity="0.12"/>
<circle cx="24.0" cy="24.0" r="2.75" fill="url(#BG)"/>
<circle cx="24.0" cy="24.0" r="2.0" fill="url(#NC)"/>
</svg>