<svg xmlns="http://www.w3.org/2000/svg" width="32" height="32" viewBox="0 0 32 32">
<defs>
<linearGradient id="BG" x1="0" y1="0" x2="1" y2="1"><stop offset="0%" stop-color="#0b0c16"/><stop offset="100%" stop-color="#06080f"/></linearGradient>
<linearGradient id="HX" x1="0" y1="0" x2="1" y2="1"><stop offset="0%" stop-color="#818cf8"/><stop offset="100%" stop-color="#38bdf8"/></linearGradient>
<linearGradient id="NC" x1="0" y1="0" x2="1" y2="1"><stop offset="0%" stop-color="#a5b4fc"/><stop offset="100%" stop-color="#7dd3fc"/></linearGradient>
</defs>
<rect width="32" height="32" rx="7.33" fill="url(#BG)"/>
<path d="M 27.34 14.85 Q 28.0 16.0 27.34 17.15 L 22.66 25.24 Q 22.0 26.39 20.67 26.39 L 11.33 26.39 Q 10.0 26.39 9.34 25.24 L 4.66 17.15 Q 4.0 16.0 4.66 14.85 L 9.34 6.76 Q 10.0 5.61 11.33 5.61 L 20.67 5.61 Q 22.0 5.61 22.66 6.76 Z" fill="#818cf808" stroke="url(#HX)" stroke-width="0.5"/>
<ellipse cx="16.0" cy="16.0" rx="9.33" ry="3.33" fill="none" stroke="#38bdf8" stroke-width="0.5" opacity="0.60" transform="rotate(35 16.0 16.0)"/>
<ellipse cx="16.0" cy="16.0" rx="9.33" ry="3.33" fill="none" stroke="#818cf8" stroke-width="0.67" opacity="0.90" transform="rotate(-35 16.0 16.0)"/>
<circle cx="14.09" cy="13.27" r="1.0" fill="#818cf8"/>
<circle cx="23.64" cy="21.35" r="1" fill="#38bdf8" opacity="0.85"/>
<circle cx="16.0" cy="16.0" r="3.0" fill="#818cf8" opacity="0.12"/>
<circle cx="16.0" cy="16.0" r="1.83" fill="url(#BG)"/>
<circle cx="16.0" cy="16.0" r="1.33" fill="url(#NC)"/>
</svg>