<svg xmlns="http://www.w3.org/2000/svg" width="96" height="96" viewBox="0 0 96 96">
<defs>
<linearGradient id="BG" x1="0" y1="0" x2="1" y2="1"><stop offset="0%" stop-color="#0b0c16"/><stop offset="100%" stop-color="#06080f"/></linearGradient>
<linearGradient id="HX" x1="0" y1="0" x2="1" y2="1"><stop offset="0%" stop-color="#818cf8"/><stop offset="100%" stop-color="#38bdf8"/></linearGradient>
<linearGradient id="NC" x1="0" y1="0" x2="1" y2="1"><stop offset="0%" stop-color="#a5b4fc"/><stop offset="100%" stop-color="#7dd3fc"/></linearGradient>
</defs>
<rect width="96" height="96" rx="21.99" fill="url(#BG)"/>
<path d="M 82.01 44.55 Q 84.0 48.0 82.01 51.45 L 67.99 75.73 Q 66.0 79.18 62.01 79.18 L 33.99 79.18 Q 30.0 79.18 28.01 75.73 L 13.99 51.45 Q 12.0 48.0 13.99 44.55 L 28.01 20.27 Q 30.0 16.82 33.99 16.82 L 62.01 16.82 Q 66.0 16.82 67.99 20.27 Z" fill="#818cf808" stroke="url(#HX)" stroke-width="1.5"/>
<ellipse cx="48.0" cy="48.0" rx="27.99" ry="9.99" fill="none" stroke="#38bdf8" stroke-width="1.5" opacity="0.60" transform="rotate(35 48.0 48.0)"/>
<ellipse cx="48.0" cy="48.0" rx="27.99" ry="9.99" fill="none" stroke="#818cf8" stroke-width="2.01" opacity="0.90" transform="rotate(-35 48.0 48.0)"/>
<circle cx="42.26" cy="39.81" r="3.0" fill="#818cf8"/>
<circle cx="70.93" cy="64.05" r="2.49" fill="#38bdf8" opacity="0.85"/>
<circle cx="48.0" cy="48.0" r="9.0" fill="#818cf8" opacity="0.12"/>
<circle cx="48.0" cy="48.0" r="5.49" fill="url(#BG)"/>
<circle cx="48.0" cy="48.0" r="3.99" fill="url(#NC)"/>
</svg>