<svg xmlns="http://www.w3.org/2000/svg" width="512" height="512" viewBox="0 0 512 512">
<defs>
<linearGradient id="BG" x1="0" y1="0" x2="1" y2="1"><stop offset="0%" stop-color="#0b0c16"/><stop offset="100%" stop-color="#06080f"/></linearGradient>
<linearGradient id="HX" x1="0" y1="0" x2="1" y2="1"><stop offset="0%" stop-color="#818cf8"/><stop offset="100%" stop-color="#38bdf8"/></linearGradient>
<linearGradient id="NC" x1="0" y1="0" x2="1" y2="1"><stop offset="0%" stop-color="#a5b4fc"/><stop offset="100%" stop-color="#7dd3fc"/></linearGradient>
</defs>
<rect width="512" height="512" rx="117.3" fill="url(#BG)"/>
<path d="M 437.4 237.6 Q 448.0 256.0 437.4 274.4 L 362.6 403.9 Q 352.0 422.3 330.7 422.3 L 181.3 422.3 Q 160.0 422.3 149.4 403.9 L 74.6 274.4 Q 64.0 256.0 74.6 237.6 L 149.4 108.1 Q 160.0 89.7 181.3 89.7 L 330.7 89.7 Q 352.0 89.7 362.6 108.1 Z" fill="#818cf808" stroke="url(#HX)" stroke-width="8.0"/>
<ellipse cx="256.0" cy="256.0" rx="149.3" ry="53.3" fill="none" stroke="#38bdf8" stroke-width="8.0" opacity="0.60" transform="rotate(35 256.0 256.0)"/>
<ellipse cx="256.0" cy="256.0" rx="149.3" ry="53.3" fill="none" stroke="#818cf8" stroke-width="10.7" opacity="0.90" transform="rotate(-35 256.0 256.0)"/>
<circle cx="225.4" cy="212.3" r="16.0" fill="#818cf8"/>
<circle cx="378.3" cy="341.6" r="13.3" fill="#38bdf8" opacity="0.85"/>
<circle cx="256.0" cy="256.0" r="48.0" fill="#818cf8" opacity="0.12"/>
<circle cx="256.0" cy="256.0" r="29.3" fill="url(#BG)"/>
<circle cx="256.0" cy="256.0" r="21.3" fill="url(#NC)"/>
</svg>