<svg xmlns="http://www.w3.org/2000/svg" width="152" height="152" viewBox="0 0 152 152">
<defs>
<linearGradient id="BG" x1="0" y1="0" x2="1" y2="1"><stop offset="0%" stop-color="#0b0c16"/><stop offset="100%" stop-color="#06080f"/></linearGradient>
<linearGradient id="HX" x1="0" y1="0" x2="1" y2="1"><stop offset="0%" stop-color="#818cf8"/><stop offset="100%" stop-color="#38bdf8"/></linearGradient>
<linearGradient id="NC" x1="0" y1="0" x2="1" y2="1"><stop offset="0%" stop-color="#a5b4fc"/><stop offset="100%" stop-color="#7dd3fc"/></linearGradient>
</defs>
<rect width="152" height="152" rx="34.82" fill="url(#BG)"/>
<path d="M 129.85 70.54 Q 133.0 76.0 129.85 81.46 L 107.65 119.91 Q 104.5 125.37 98.18 125.37 L 53.82 125.37 Q 47.5 125.37 44.35 119.91 L 22.15 81.46 Q 19.0 76.0 22.15 70.54 L 44.35 32.09 Q 47.5 26.63 53.82 26.63 L 98.18 26.63 Q 104.5 26.63 107.65 32.09 Z" fill="#818cf808" stroke="url(#HX)" stroke-width="2.38"/>
<ellipse cx="76.0" cy="76.0" rx="44.32" ry="15.82" fill="none" stroke="#38bdf8" stroke-width="2.38" opacity="0.60" transform="rotate(35 76.0 76.0)"/>
<ellipse cx="76.0" cy="76.0" rx="44.32" ry="15.82" fill="none" stroke="#818cf8" stroke-width="3.18" opacity="0.90" transform="rotate(-35 76.0 76.0)"/>
<circle cx="66.92" cy="63.03" r="4.75" fill="#818cf8"/>
<circle cx="112.31" cy="101.41" r="3.95" fill="#38bdf8" opacity="0.85"/>
<circle cx="76.0" cy="76.0" r="14.25" fill="#818cf8" opacity="0.12"/>
<circle cx="76.0" cy="76.0" r="8.7" fill="url(#BG)"/>
<circle cx="76.0" cy="76.0" r="6.32" fill="url(#NC)"/>
</svg>